# xmcd
#
# Track frame offsets:
#	150
#	15786
#	33409
#	60539
#	74086
#	91302
#	108235
#	119104
#	133464
#	150322
#	162457
#	174073
#	191973
#	207928
#	223074
#	239242
#	255557
#	277330
#	297587
#	312825
#
# Disc length: 4425 seconds
#
# Revision: 1
# Processed by: cddbd v1.4PL0 Copyright (c) Steve Scherf et al.
# Submitted via: audiograbber 1.80
#
DISCID=3a114714
DTITLE=Танц-двадцатка 4 - пр
DYEAR=1900
DGENRE=
TTITLE0=Як-40 - Да начихать
TTITLE1=J-Power - Я тебя рисую
TTITLE2=Antimateria - Heartbeat
TTITLE3=Таяна - Солнце, воздух и вода
TTITLE4=Наталья Гулькина - Смотри на меня
TTITLE5=Игорь Снэйк - Не улетай
TTITLE6=Ночной патруль - Нам хорошо!
TTITLE7=Отель грёз - На вершине горной
TTITLE8=Багиро - Я так тебя хочу
TTITLE9=Ультразвук - Холоно одной
TTITLE10=Дубровский - Полнолуние
TTITLE11=РомаН - Дай мне шанс
TTITLE12=Жозефина - Ля-ля-ля
TTITLE13=Павел Селезнёв - Улетай
TTITLE14=Герман - Ты для меня
TTITLE15=Елена Кузьмина - Рыжик
TTITLE16=Ma-Goo - Не надо
TTITLE17=РиО - Мамбо от Рио
TTITLE18=Проект Моссо - Я с тобой
TTITLE19=Господин Оформитель - Sex-машина
EXTD=
EXTT0=
EXTT1=
EXTT2=
EXTT3=
EXTT4=
EXTT5=
EXTT6=
EXTT7=
EXTT8=
EXTT9=
EXTT10=
EXTT11=
EXTT12=
EXTT13=
EXTT14=
EXTT15=
EXTT16=
EXTT17=
EXTT18=
EXTT19=
PLAYORDER=
